<svg width="16" height="16" viewBox="0 0 16 16" fill="none" xmlns="http://www.w3.org/2000/svg">
<path d="M1.13672 8.83663H12.3067L7.42672 13.7166C7.03672 14.1066 7.03672 14.7466 7.42672 15.1366C7.81672 15.5266 8.44672 15.5266 8.83672 15.1366L15.4267 8.54663C15.8167 8.15663 15.8167 7.52663 15.4267 7.13663L8.84672 0.536626C8.65989 0.349374 8.40624 0.244141 8.14172 0.244141C7.8772 0.244141 7.62355 0.349374 7.43672 0.536626C7.04672 0.926626 7.04672 1.55663 7.43672 1.94663L12.3067 6.83663H1.13672C0.586719 6.83663 0.136719 7.28663 0.136719 7.83663C0.136719 8.38663 0.586719 8.83663 1.13672 8.83663Z" fill="white"/>
</svg>
