<svg width="60" height="41" viewBox="0 0 60 41" fill="none" xmlns="http://www.w3.org/2000/svg">
<rect y="0.25" width="60" height="40" rx="6" fill="white"/>
<path d="M7.35 13.75C7.35 13.0633 7.50333 12.45 7.81 11.91C8.12333 11.3633 8.54667 10.94 9.08 10.64C9.62 10.3333 10.2233 10.18 10.89 10.18C11.67 10.18 12.3533 10.38 12.94 10.78C13.5267 11.18 13.9367 11.7333 14.17 12.44H12.56C12.4 12.1067 12.1733 11.8567 11.88 11.69C11.5933 11.5233 11.26 11.44 10.88 11.44C10.4733 11.44 10.11 11.5367 9.79 11.73C9.47667 11.9167 9.23 12.1833 9.05 12.53C8.87667 12.8767 8.79 13.2833 8.79 13.75C8.79 14.21 8.87667 14.6167 9.05 14.97C9.23 15.3167 9.47667 15.5867 9.79 15.78C10.11 15.9667 10.4733 16.06 10.88 16.06C11.26 16.06 11.5933 15.9767 11.88 15.81C12.1733 15.6367 12.4 15.3833 12.56 15.05H14.17C13.9367 15.7633 13.5267 16.32 12.94 16.72C12.36 17.1133 11.6767 17.31 10.89 17.31C10.2233 17.31 9.62 17.16 9.08 16.86C8.54667 16.5533 8.12333 16.13 7.81 15.59C7.50333 15.05 7.35 14.4367 7.35 13.75ZM19.6458 15.92H16.8658L16.4058 17.25H14.9358L17.4458 10.26H19.0758L21.5858 17.25H20.1058L19.6458 15.92ZM19.2658 14.8L18.2558 11.88L17.2458 14.8H19.2658ZM24.934 17.32C24.4473 17.32 24.0073 17.2367 23.614 17.07C23.2273 16.9033 22.9207 16.6633 22.694 16.35C22.4673 16.0367 22.3507 15.6667 22.344 15.24H23.844C23.864 15.5267 23.964 15.7533 24.144 15.92C24.3307 16.0867 24.584 16.17 24.904 16.17C25.2307 16.17 25.4873 16.0933 25.674 15.94C25.8607 15.78 25.954 15.5733 25.954 15.32C25.954 15.1133 25.8907 14.9433 25.764 14.81C25.6373 14.6767 25.4773 14.5733 25.284 14.5C25.0973 14.42 24.8373 14.3333 24.504 14.24C24.0507 14.1067 23.6807 13.9767 23.394 13.85C23.114 13.7167 22.8707 13.52 22.664 13.26C22.464 12.9933 22.364 12.64 22.364 12.2C22.364 11.7867 22.4673 11.4267 22.674 11.12C22.8807 10.8133 23.1707 10.58 23.544 10.42C23.9173 10.2533 24.344 10.17 24.824 10.17C25.544 10.17 26.1273 10.3467 26.574 10.7C27.0273 11.0467 27.2773 11.5333 27.324 12.16H25.784C25.7707 11.92 25.6673 11.7233 25.474 11.57C25.2873 11.41 25.0373 11.33 24.724 11.33C24.4507 11.33 24.2307 11.4 24.064 11.54C23.904 11.68 23.824 11.8833 23.824 12.15C23.824 12.3367 23.884 12.4933 24.004 12.62C24.1307 12.74 24.284 12.84 24.464 12.92C24.6507 12.9933 24.9107 13.08 25.244 13.18C25.6973 13.3133 26.0673 13.4467 26.354 13.58C26.6407 13.7133 26.8873 13.9133 27.094 14.18C27.3007 14.4467 27.404 14.7967 27.404 15.23C27.404 15.6033 27.3073 15.95 27.114 16.27C26.9207 16.59 26.6373 16.8467 26.264 17.04C25.8907 17.2267 25.4473 17.32 24.934 17.32ZM34.4077 10.27V17.25H33.0077V14.28H30.0177V17.25H28.6177V10.27H30.0177V13.14H33.0077V10.27H34.4077ZM41.4085 17.32C40.7552 17.32 40.1552 17.1667 39.6085 16.86C39.0618 16.5533 38.6285 16.13 38.3085 15.59C37.9885 15.0433 37.8285 14.4267 37.8285 13.74C37.8285 13.06 37.9885 12.45 38.3085 11.91C38.6285 11.3633 39.0618 10.9367 39.6085 10.63C40.1552 10.3233 40.7552 10.17 41.4085 10.17C42.0685 10.17 42.6685 10.3233 43.2085 10.63C43.7552 10.9367 44.1852 11.3633 44.4985 11.91C44.8185 12.45 44.9785 13.06 44.9785 13.74C44.9785 14.4267 44.8185 15.0433 44.4985 15.59C44.1852 16.13 43.7552 16.5533 43.2085 16.86C42.6618 17.1667 42.0618 17.32 41.4085 17.32ZM41.4085 16.07C41.8285 16.07 42.1985 15.9767 42.5185 15.79C42.8385 15.5967 43.0885 15.3233 43.2685 14.97C43.4485 14.6167 43.5385 14.2067 43.5385 13.74C43.5385 13.2733 43.4485 12.8667 43.2685 12.52C43.0885 12.1667 42.8385 11.8967 42.5185 11.71C42.1985 11.5233 41.8285 11.43 41.4085 11.43C40.9885 11.43 40.6152 11.5233 40.2885 11.71C39.9685 11.8967 39.7185 12.1667 39.5385 12.52C39.3585 12.8667 39.2685 13.2733 39.2685 13.74C39.2685 14.2067 39.3585 14.6167 39.5385 14.97C39.7185 15.3233 39.9685 15.5967 40.2885 15.79C40.6152 15.9767 40.9885 16.07 41.4085 16.07ZM51.9901 17.25H50.5901L47.4201 12.46V17.25H46.0201V10.26H47.4201L50.5901 15.06V10.26H51.9901V17.25ZM10.13 23.27C10.8633 23.27 11.5067 23.4133 12.06 23.7C12.62 23.9867 13.05 24.3967 13.35 24.93C13.6567 25.4567 13.81 26.07 13.81 26.77C13.81 27.47 13.6567 28.0833 13.35 28.61C13.05 29.13 12.62 29.5333 12.06 29.82C11.5067 30.1067 10.8633 30.25 10.13 30.25H7.69V23.27H10.13ZM10.08 29.06C10.8133 29.06 11.38 28.86 11.78 28.46C12.18 28.06 12.38 27.4967 12.38 26.77C12.38 26.0433 12.18 25.4767 11.78 25.07C11.38 24.6567 10.8133 24.45 10.08 24.45H9.09V29.06H10.08ZM16.258 24.4V26.15H18.608V27.26H16.258V29.11H18.908V30.25H14.858V23.26H18.908V24.4H16.258ZM21.5802 29.14H23.8802V30.25H20.1802V23.27H21.5802V29.14ZM26.1701 23.27V30.25H24.7701V23.27H26.1701ZM33.8233 23.27L31.2633 30.25H29.5633L27.0033 23.27H28.5033L30.4233 28.82L32.3333 23.27H33.8233ZM36.0627 24.4V26.15H38.4127V27.26H36.0627V29.11H38.7127V30.25H34.6627V23.26H38.7127V24.4H36.0627ZM43.5849 30.25L42.0449 27.53H41.3849V30.25H39.9849V23.27H42.6049C43.1449 23.27 43.6049 23.3667 43.9849 23.56C44.3649 23.7467 44.6483 24.0033 44.8349 24.33C45.0283 24.65 45.1249 25.01 45.1249 25.41C45.1249 25.87 44.9916 26.2867 44.7249 26.66C44.4583 27.0267 44.0616 27.28 43.5349 27.42L45.2049 30.25H43.5849ZM41.3849 26.48H42.5549C42.9349 26.48 43.2183 26.39 43.4049 26.21C43.5916 26.0233 43.6849 25.7667 43.6849 25.44C43.6849 25.12 43.5916 24.8733 43.4049 24.7C43.2183 24.52 42.9349 24.43 42.5549 24.43H41.3849V26.48ZM51.9412 23.27L49.5812 27.82V30.25H48.1812V27.82L45.8112 23.27H47.3912L48.8912 26.46L50.3812 23.27H51.9412Z" fill="#F37A20"/>
</svg>
