<svg width="32" height="32" viewBox="0 0 32 32" fill="none" xmlns="http://www.w3.org/2000/svg">
<g clip-path="url(#clip0)">
<path fill-rule="evenodd" clip-rule="evenodd" d="M24.1656 16.8006C22.4225 18.168 20.7904 19.4484 18.4627 20.2344C18.1826 20.329 17.8923 20.4165 17.5906 20.4961C17.3496 20.5596 17.1012 20.6182 16.8448 20.6713C16.5148 20.7398 16.1715 20.7992 15.8133 20.849C16.0934 21.0196 16.3343 21.2149 16.5229 21.4304C17.1974 21.7164 17.669 22.0849 17.8406 22.4959C17.8876 22.6085 17.9121 22.7242 17.9121 22.8423C17.9121 23.9591 15.7247 24.8643 13.0255 24.8643C10.3274 24.8643 8.13989 23.9591 8.13989 22.8423C8.13989 22.5864 8.25466 22.3417 8.46411 22.1164C8.70442 21.8579 9.06937 21.6251 9.52861 21.4304C9.77233 21.1521 10.1013 20.907 10.4925 20.7066C9.96057 20.5657 9.45714 20.3816 8.99016 20.1603C8.75816 20.0503 8.53515 19.9311 8.32212 19.8035L8.30734 19.7946C7.9758 19.5949 7.66857 19.3745 7.38936 19.1362C7.06164 18.8566 6.77251 18.5522 6.52799 18.2275C6.35805 18.0018 6.20966 17.7663 6.08482 17.5225C6.03497 17.6042 5.98425 17.6804 5.93282 17.7514C5.53376 18.3021 5.09181 18.5381 4.68084 18.5711C4.63257 18.5763 4.58367 18.5794 4.53397 18.5794C4.48066 18.5794 4.42808 18.5763 4.3764 18.5703C3.83279 18.5069 3.38842 18.1194 3.23978 17.6065C3.1892 17.4582 3.1701 17.3064 3.1892 17.1614C3.19172 17.1123 3.19686 17.0639 3.20448 17.0163C3.26344 16.6483 3.47098 16.3303 3.76416 16.1257C3.8172 16.0887 3.87303 16.0554 3.9313 16.0262C3.33481 15.5883 2.65553 15.2083 2.10284 14.9312C1.99901 14.8791 1.89965 14.8307 1.80615 14.7862C1.30531 14.5528 0.920877 14.2664 0.638052 13.9479C0.208808 13.4645 0.0136059 12.9073 0.000688821 12.3493C-0.000980448 12.2772 0.000394479 12.2051 0.0047019 12.1332L0.00583153 12.1153C0.14209 10.0697 2.64184 8.15364 4.9371 10C5.00223 10.0549 5.06433 10.1115 5.12371 10.1695C5.13893 10.1844 5.15397 10.1994 5.16884 10.2145C5.39144 10.4403 5.57518 10.6876 5.73738 10.9459L5.76989 10.9983C5.89494 11.202 6.00745 11.412 6.1158 11.623L6.13271 11.656C6.17329 11.7354 6.21335 11.8149 6.25332 11.8943L6.29727 11.9814C6.43744 12.2591 6.57861 12.5335 6.73998 12.7929C6.83543 12.6817 6.93611 12.5731 7.04199 12.4674C7.09585 12.4137 7.15105 12.3607 7.20761 12.3085L7.33252 12.1764C7.49791 12.0018 7.63355 11.8597 7.68352 11.8073L7.70415 11.7857L7.71007 11.7888L7.70859 11.7776C7.70345 11.7373 7.70024 11.6968 7.70024 11.656C7.70024 11.394 7.80513 11.1423 7.99805 10.9083C8.06755 10.8239 8.14847 10.7419 8.24004 10.6625C8.28112 10.6268 8.32435 10.5917 8.36964 10.5571L8.38247 10.5474C8.83647 10.205 9.49425 9.91796 10.2859 9.71581L10.3015 9.71185C10.7291 9.60351 11.1954 9.51989 11.6895 9.46564C11.7293 9.46127 11.7693 9.4571 11.8095 9.45311C11.9651 9.43766 12.1234 9.4251 12.284 9.41559C12.2547 9.3014 12.2378 9.17906 12.2378 9.05089L12.238 9.04452L12.2383 9.03853L12.2387 9.02748L12.2327 9.02138C12.0372 8.82117 11.9165 8.54743 11.9165 8.24542C11.9165 8.19165 11.9203 8.13878 11.9277 8.08705C11.9574 7.87934 12.0446 7.69015 12.1727 7.53617C12.3761 7.29153 12.6827 7.13574 13.0255 7.13574C13.3685 7.13574 13.6751 7.2912 13.8787 7.5354C14.0076 7.69002 14.0953 7.88023 14.1248 8.08908C14.132 8.14016 14.1357 8.19236 14.1357 8.24542C14.1357 8.54745 14.0151 8.82112 13.8194 9.02127L13.8126 9.02812L13.813 9.03882L13.8133 9.04355L13.8134 9.05081C13.8134 9.17888 13.7966 9.30135 13.7673 9.41551C13.9271 9.42498 14.0846 9.43745 14.2395 9.4528C14.2804 9.45685 14.3212 9.4611 14.3617 9.46556C14.8559 9.5198 15.3222 9.60342 15.7498 9.71176L15.7662 9.71593C16.4901 9.90087 17.102 10.1568 17.5484 10.4612C17.9755 10.7523 18.2511 11.0877 18.3285 11.4474C18.4628 11.5077 18.5966 11.5675 18.7317 11.6259L18.7828 11.6479C19.2909 11.8655 19.8195 12.0622 20.4552 12.1958C22.0974 12.5408 24.4546 12.4646 29.0212 11.2399C29.1183 11.2185 29.2156 11.2021 29.3126 11.1902C29.6423 11.1499 29.9686 11.162 30.2743 11.2093C30.7437 11.282 31.1642 11.4379 31.4726 11.6147C31.5527 11.6606 31.6253 11.708 31.6891 11.7557C31.9961 11.9848 32.1026 12.2214 31.8855 12.3443C31.2856 12.5444 30.7254 12.7591 30.1989 12.9854C30.0593 13.0454 29.9222 13.1061 29.7873 13.1677C27.4204 14.2473 25.7473 15.5598 24.1656 16.8006ZM15.5379 18.8681L12.7996 19.2488L11.0047 18.7733C9.36166 18.338 8.29603 17.4528 7.86507 16.611L7.73472 16.3564L7.75032 16.3486L7.71891 16.3256L7.53838 15.973L7.64844 15.314L7.64961 15.3071C8.08393 15.4929 8.54994 15.6434 9.02573 15.7634C10.082 16.0299 11.3415 16.1851 12.7505 16.1851C14.5477 16.1851 16.334 15.8972 17.7666 15.2886C18.2956 15.0638 18.8093 14.776 19.2381 14.4236C19.3525 14.3297 19.4901 14.2074 19.6302 14.0563C20.2358 14.2119 20.9282 14.3262 21.7468 14.3619C22.4651 14.3931 23.2643 14.3637 24.1764 14.2618C23.7459 14.5868 23.3382 14.9071 22.945 15.2159C22.7784 15.3467 22.6144 15.4755 22.4524 15.6018C20.38 17.2167 18.6195 18.4396 15.5379 18.8681ZM10.0216 13.9378C9.5951 13.8533 9.21049 13.7505 8.87168 13.6347C8.82957 13.6203 8.78817 13.6057 8.74748 13.5909C8.69622 13.5723 8.64609 13.5534 8.59712 13.5342C8.54177 13.5124 8.48788 13.4904 8.43549 13.468C8.33833 13.4264 8.2463 13.3837 8.15954 13.34C7.98398 13.2517 7.82998 13.1595 7.69867 13.0649C7.65911 13.0364 7.62162 13.0077 7.58621 12.9788L7.70743 12.8501L7.7422 12.8133L7.86629 12.6821C8.17441 12.8171 8.50775 12.938 8.86171 13.0439C8.93604 13.0662 9.01128 13.0878 9.08739 13.1087C9.35968 13.1836 9.64308 13.2498 9.93562 13.3071C10.8096 13.4783 11.7651 13.5694 12.7505 13.5694C14.2364 13.5694 15.6356 13.3658 16.7934 12.998L16.8555 12.978C17.196 12.8673 17.5151 12.7422 17.8087 12.6038C18.0194 12.5045 18.217 12.3983 18.4 12.2856L18.4017 12.2859C18.382 12.3874 18.3274 12.4955 18.2425 12.6043C18.2113 12.6442 18.176 12.6844 18.1368 12.7246C17.9931 12.8721 17.7969 13.0206 17.5581 13.1613C17.5158 13.1861 17.4723 13.2108 17.4274 13.2351C17.2911 13.3092 17.1429 13.3805 16.9845 13.4478C15.8656 13.9232 14.362 14.185 12.7506 14.1851C11.7173 14.1851 10.7997 14.0919 10.0216 13.9378ZM13.6491 11.412C13.8909 11.4263 14.1218 11.4486 14.3406 11.4773C13.8455 11.5364 13.3129 11.5694 12.7506 11.5694C12.3121 11.5694 11.8873 11.5488 11.4813 11.5106C11.7656 11.4657 12.0735 11.4316 12.4023 11.4121L13.0263 11.3751L13.6491 11.412ZM5.75134 12.5943L5.8343 12.7006C5.95057 12.8492 6.0673 12.9957 6.1893 13.1355C6.24122 13.195 6.29408 13.2533 6.34828 13.3099C6.31527 13.3599 6.2833 13.4103 6.25237 13.4611C6.11117 13.693 5.99184 13.9336 5.89626 14.1814C5.81295 14.3973 5.74768 14.6188 5.70167 14.8448L5.69191 14.8942C5.68619 14.9243 5.68081 14.9544 5.67577 14.9845C5.59173 14.9173 5.50294 14.852 5.41038 14.7884C5.2942 14.7085 5.17209 14.6312 5.04597 14.5558L5.02142 14.5412C4.86048 14.4456 4.69328 14.353 4.52377 14.2619C4.39154 14.1908 4.2579 14.1207 4.12475 14.0508C4.04085 14.0068 3.95703 13.9628 3.87399 13.9188C3.39714 13.6661 2.94211 13.4112 2.59806 13.1221L2.58627 13.1121C2.42546 12.9756 2.28948 12.8314 2.18765 12.6763C2.09671 12.5377 2.033 12.3903 2.00316 12.2318C1.99291 12.1774 1.98665 12.1216 1.98467 12.0644C1.95957 11.0887 3.15477 10.7899 4.02742 11.08L4.05948 11.091C4.19714 11.1395 4.32613 11.2029 4.44024 11.2809C4.87144 11.5461 5.19935 11.9036 5.50115 12.2771C5.58604 12.3821 5.66887 12.4884 5.75134 12.5943Z" fill="#37474F"/>
</g>
<defs>
<clipPath id="clip0">
<rect width="32" height="32" fill="white"/>
</clipPath>
</defs>
</svg>
