<svg width="17" height="22" viewBox="0 0 17 22" fill="none" xmlns="http://www.w3.org/2000/svg">
<path fill-rule="evenodd" clip-rule="evenodd" d="M13.9277 7.50781H14.9277C16.0277 7.50781 16.9277 8.40781 16.9277 9.50781V19.5078C16.9277 20.6078 16.0277 21.5078 14.9277 21.5078H2.92773C1.82773 21.5078 0.927734 20.6078 0.927734 19.5078V9.50781C0.927734 8.40781 1.82773 7.50781 2.92773 7.50781H3.92773V5.50781C3.92773 2.74781 6.16773 0.507812 8.92773 0.507812C11.6877 0.507812 13.9277 2.74781 13.9277 5.50781V7.50781ZM8.92773 2.50781C7.26773 2.50781 5.92773 3.84781 5.92773 5.50781V7.50781H11.9277V5.50781C11.9277 3.84781 10.5877 2.50781 8.92773 2.50781ZM2.92773 19.5078V9.50781H14.9277V19.5078H2.92773ZM10.9277 14.5078C10.9277 15.6078 10.0277 16.5078 8.92773 16.5078C7.82773 16.5078 6.92773 15.6078 6.92773 14.5078C6.92773 13.4078 7.82773 12.5078 8.92773 12.5078C10.0277 12.5078 10.9277 13.4078 10.9277 14.5078Z" fill="#37474F"/>
</svg>
