<svg width="17" height="18" viewBox="0 0 17 18" fill="none" xmlns="http://www.w3.org/2000/svg">
<mask id="path-1-outside-1" maskUnits="userSpaceOnUse" x="-0.25" y="-0.25" width="18" height="18" fill="black">
<rect fill="white" x="-0.25" y="-0.25" width="18" height="18"/>
<path fill-rule="evenodd" clip-rule="evenodd" d="M15.9619 8.86256C15.8949 8.99965 15.8949 9.15691 15.9619 9.29403L16.5831 10.5649C16.929 11.2725 16.655 12.1159 15.9592 12.4851L14.7097 13.1481C14.5749 13.2196 14.4825 13.3468 14.4561 13.4971L14.2117 14.8904C14.0756 15.6661 13.3584 16.1875 12.5783 16.0771L11.1777 15.879C11.0266 15.8578 10.8771 15.9062 10.7674 16.0123L9.75072 16.9958C9.46775 17.2696 9.1044 17.4065 8.74125 17.4066C8.378 17.4066 8.01488 17.2697 7.73178 16.9958L6.71513 16.0123C6.60543 15.9062 6.45585 15.8575 6.3048 15.879L4.9042 16.0771C4.83429 16.087 4.76474 16.0918 4.69619 16.0918C4.00024 16.0919 3.39469 15.5966 3.2708 14.8904L3.02642 13.4971C3.00004 13.3468 2.90762 13.2196 2.77281 13.1481L1.52325 12.4851C0.827524 12.1159 0.553475 11.2725 0.899354 10.5649L1.52058 9.2941C1.5876 9.15701 1.5876 8.99975 1.52058 8.86262L0.899387 7.59179C0.553507 6.88419 0.827556 6.04074 1.52329 5.67163L2.77284 5.00863C2.90762 4.93709 3.00004 4.80986 3.02642 4.65956L3.2708 3.26631C3.40689 2.49055 4.12422 1.9692 4.90417 2.07958L6.30477 2.2777C6.45591 2.29897 6.6054 2.25047 6.71509 2.14435L7.73178 1.16074C8.29784 0.613069 9.18466 0.613101 9.75075 1.16074L10.7674 2.14425C10.8771 2.25034 11.0266 2.29894 11.1777 2.2776L12.5783 2.07948C13.358 1.96916 14.0756 2.49046 14.2117 3.26621L14.4561 4.65953C14.4825 4.80979 14.5749 4.93706 14.7097 5.00856L15.9592 5.67156C16.655 6.0407 16.929 6.88409 16.5831 7.5917L15.9619 8.86256ZM14.2594 12.2994L15.509 11.6364C15.7444 11.5115 15.8371 11.2261 15.72 10.9867L15.0988 9.71584C14.9008 9.31065 14.9008 8.84584 15.0988 8.44065L15.72 7.16982C15.8371 6.93042 15.7443 6.64508 15.5089 6.52019L14.2594 5.85719C13.861 5.64583 13.5878 5.26979 13.5098 4.82554L13.2654 3.43222C13.2194 3.16976 12.9766 2.9934 12.7128 3.03071L11.3122 3.22883C10.8657 3.29204 10.4236 3.14838 10.0994 2.83477L9.08274 1.85127C8.89119 1.66603 8.59115 1.66603 8.39966 1.85127L7.38298 2.83477C7.05879 3.14835 6.61665 3.29204 6.17015 3.22883L4.76955 3.03071C4.50562 2.99343 4.263 3.16976 4.21693 3.43222L3.97255 4.8255C3.89464 5.26976 3.6214 5.64576 3.22302 5.85719L1.97346 6.52019C1.73806 6.64508 1.64534 6.93042 1.76236 7.16982L2.38359 8.44068C2.58165 8.8459 2.58165 9.31065 2.38359 9.71587L1.76236 10.9867C1.64534 11.2261 1.73806 11.5115 1.97346 11.6364L3.22302 12.2994C3.62143 12.5107 3.89464 12.8868 3.97258 13.331L4.217 14.7243C4.26306 14.9868 4.50591 15.1631 4.76962 15.1258L6.17022 14.9277C6.23938 14.9179 6.30844 14.9131 6.37696 14.9131C6.75088 14.9131 7.10906 15.0567 7.38304 15.3218L8.3997 16.3053C8.59125 16.4905 8.89129 16.4905 9.08277 16.3053L10.0995 15.3218C10.4236 15.0082 10.8656 14.8645 11.3123 14.9278L12.7129 15.1259C12.9768 15.1631 13.2195 14.9868 13.2655 14.7244L13.5099 13.3311C13.5878 12.8868 13.861 12.5108 14.2594 12.2994ZM11.5711 5.56875C11.7587 5.38118 12.0629 5.38118 12.2504 5.56875C12.4381 5.75637 12.4381 6.06048 12.2504 6.24809L5.91028 12.5882C5.81653 12.682 5.69356 12.7289 5.57065 12.7289C5.44774 12.7289 5.32481 12.682 5.23102 12.5882C5.04344 12.4006 5.04344 12.0965 5.23102 11.9089L11.5711 5.56875ZM6.81972 4.75534C5.84858 4.75534 5.05847 5.54544 5.05847 6.51659C5.05847 7.48773 5.84858 8.27784 6.81972 8.27784C7.79086 8.27784 8.58097 7.48773 8.58097 6.51659C8.58097 5.54544 7.79086 4.75534 6.81972 4.75534ZM6.81972 7.31713C6.37829 7.31713 6.01917 6.95801 6.01917 6.51656C6.01917 6.07513 6.37829 5.71601 6.81972 5.71601C7.26115 5.71601 7.6203 6.07513 7.6203 6.51656C7.62027 6.95801 7.26115 7.31713 6.81972 7.31713ZM8.90131 11.6402C8.90131 10.669 9.69141 9.87891 10.6626 9.87891C11.6337 9.87891 12.4238 10.669 12.4238 11.6402C12.4238 12.6113 11.6337 13.4014 10.6626 13.4014C9.69141 13.4014 8.90131 12.6113 8.90131 11.6402ZM9.86197 11.6402C9.86197 12.0816 10.2211 12.4407 10.6626 12.4407C11.104 12.4407 11.4631 12.0816 11.4631 11.6402C11.4631 11.1987 11.104 10.8396 10.6626 10.8396C10.2211 10.8396 9.86197 11.1987 9.86197 11.6402Z"/>
</mask>
<path fill-rule="evenodd" clip-rule="evenodd" d="M15.9619 8.86256C15.8949 8.99965 15.8949 9.15691 15.9619 9.29403L16.5831 10.5649C16.929 11.2725 16.655 12.1159 15.9592 12.4851L14.7097 13.1481C14.5749 13.2196 14.4825 13.3468 14.4561 13.4971L14.2117 14.8904C14.0756 15.6661 13.3584 16.1875 12.5783 16.0771L11.1777 15.879C11.0266 15.8578 10.8771 15.9062 10.7674 16.0123L9.75072 16.9958C9.46775 17.2696 9.1044 17.4065 8.74125 17.4066C8.378 17.4066 8.01488 17.2697 7.73178 16.9958L6.71513 16.0123C6.60543 15.9062 6.45585 15.8575 6.3048 15.879L4.9042 16.0771C4.83429 16.087 4.76474 16.0918 4.69619 16.0918C4.00024 16.0919 3.39469 15.5966 3.2708 14.8904L3.02642 13.4971C3.00004 13.3468 2.90762 13.2196 2.77281 13.1481L1.52325 12.4851C0.827524 12.1159 0.553475 11.2725 0.899354 10.5649L1.52058 9.2941C1.5876 9.15701 1.5876 8.99975 1.52058 8.86262L0.899387 7.59179C0.553507 6.88419 0.827556 6.04074 1.52329 5.67163L2.77284 5.00863C2.90762 4.93709 3.00004 4.80986 3.02642 4.65956L3.2708 3.26631C3.40689 2.49055 4.12422 1.9692 4.90417 2.07958L6.30477 2.2777C6.45591 2.29897 6.6054 2.25047 6.71509 2.14435L7.73178 1.16074C8.29784 0.613069 9.18466 0.613101 9.75075 1.16074L10.7674 2.14425C10.8771 2.25034 11.0266 2.29894 11.1777 2.2776L12.5783 2.07948C13.358 1.96916 14.0756 2.49046 14.2117 3.26621L14.4561 4.65953C14.4825 4.80979 14.5749 4.93706 14.7097 5.00856L15.9592 5.67156C16.655 6.0407 16.929 6.88409 16.5831 7.5917L15.9619 8.86256ZM14.2594 12.2994L15.509 11.6364C15.7444 11.5115 15.8371 11.2261 15.72 10.9867L15.0988 9.71584C14.9008 9.31065 14.9008 8.84584 15.0988 8.44065L15.72 7.16982C15.8371 6.93042 15.7443 6.64508 15.5089 6.52019L14.2594 5.85719C13.861 5.64583 13.5878 5.26979 13.5098 4.82554L13.2654 3.43222C13.2194 3.16976 12.9766 2.9934 12.7128 3.03071L11.3122 3.22883C10.8657 3.29204 10.4236 3.14838 10.0994 2.83477L9.08274 1.85127C8.89119 1.66603 8.59115 1.66603 8.39966 1.85127L7.38298 2.83477C7.05879 3.14835 6.61665 3.29204 6.17015 3.22883L4.76955 3.03071C4.50562 2.99343 4.263 3.16976 4.21693 3.43222L3.97255 4.8255C3.89464 5.26976 3.6214 5.64576 3.22302 5.85719L1.97346 6.52019C1.73806 6.64508 1.64534 6.93042 1.76236 7.16982L2.38359 8.44068C2.58165 8.8459 2.58165 9.31065 2.38359 9.71587L1.76236 10.9867C1.64534 11.2261 1.73806 11.5115 1.97346 11.6364L3.22302 12.2994C3.62143 12.5107 3.89464 12.8868 3.97258 13.331L4.217 14.7243C4.26306 14.9868 4.50591 15.1631 4.76962 15.1258L6.17022 14.9277C6.23938 14.9179 6.30844 14.9131 6.37696 14.9131C6.75088 14.9131 7.10906 15.0567 7.38304 15.3218L8.3997 16.3053C8.59125 16.4905 8.89129 16.4905 9.08277 16.3053L10.0995 15.3218C10.4236 15.0082 10.8656 14.8645 11.3123 14.9278L12.7129 15.1259C12.9768 15.1631 13.2195 14.9868 13.2655 14.7244L13.5099 13.3311C13.5878 12.8868 13.861 12.5108 14.2594 12.2994ZM11.5711 5.56875C11.7587 5.38118 12.0629 5.38118 12.2504 5.56875C12.4381 5.75637 12.4381 6.06048 12.2504 6.24809L5.91028 12.5882C5.81653 12.682 5.69356 12.7289 5.57065 12.7289C5.44774 12.7289 5.32481 12.682 5.23102 12.5882C5.04344 12.4006 5.04344 12.0965 5.23102 11.9089L11.5711 5.56875ZM6.81972 4.75534C5.84858 4.75534 5.05847 5.54544 5.05847 6.51659C5.05847 7.48773 5.84858 8.27784 6.81972 8.27784C7.79086 8.27784 8.58097 7.48773 8.58097 6.51659C8.58097 5.54544 7.79086 4.75534 6.81972 4.75534ZM6.81972 7.31713C6.37829 7.31713 6.01917 6.95801 6.01917 6.51656C6.01917 6.07513 6.37829 5.71601 6.81972 5.71601C7.26115 5.71601 7.6203 6.07513 7.6203 6.51656C7.62027 6.95801 7.26115 7.31713 6.81972 7.31713ZM8.90131 11.6402C8.90131 10.669 9.69141 9.87891 10.6626 9.87891C11.6337 9.87891 12.4238 10.669 12.4238 11.6402C12.4238 12.6113 11.6337 13.4014 10.6626 13.4014C9.69141 13.4014 8.90131 12.6113 8.90131 11.6402ZM9.86197 11.6402C9.86197 12.0816 10.2211 12.4407 10.6626 12.4407C11.104 12.4407 11.4631 12.0816 11.4631 11.6402C11.4631 11.1987 11.104 10.8396 10.6626 10.8396C10.2211 10.8396 9.86197 11.1987 9.86197 11.6402Z" fill="#37474F"/>
<path d="M15.9619 9.29403L15.7822 9.38185L15.7822 9.38186L15.9619 9.29403ZM15.9619 8.86256L16.1416 8.95039L16.1416 8.95039L15.9619 8.86256ZM16.5831 10.5649L16.7628 10.4771L16.7628 10.4771L16.5831 10.5649ZM15.9592 12.4851L15.8655 12.3084L15.8655 12.3084L15.9592 12.4851ZM14.7097 13.1481L14.616 12.9714L14.6159 12.9714L14.7097 13.1481ZM14.4561 13.4971L14.2591 13.4625L14.2591 13.4626L14.4561 13.4971ZM14.2117 14.8904L14.0147 14.8558V14.8558L14.2117 14.8904ZM12.5783 16.0771L12.6063 15.8791H12.6063L12.5783 16.0771ZM11.1777 15.879L11.2057 15.681L11.2055 15.6809L11.1777 15.879ZM10.7674 16.0123L10.6284 15.8686L10.6283 15.8686L10.7674 16.0123ZM9.75072 16.9958L9.61166 16.8521L9.61164 16.8521L9.75072 16.9958ZM8.74125 17.4066L8.74127 17.6066L8.74125 17.4066ZM7.73178 16.9958L7.59272 17.1396L7.59273 17.1396L7.73178 16.9958ZM6.71513 16.0123L6.85418 15.8686L6.85416 15.8686L6.71513 16.0123ZM6.3048 15.879L6.33281 16.077L6.33291 16.077L6.3048 15.879ZM4.9042 16.0771L4.87619 15.8791H4.87619L4.9042 16.0771ZM4.69619 16.0918V15.8918H4.69617L4.69619 16.0918ZM3.2708 14.8904L3.07381 14.925L3.07381 14.925L3.2708 14.8904ZM3.02642 13.4971L3.22342 13.4625L3.22341 13.4625L3.02642 13.4971ZM2.77281 13.1481L2.67906 13.3247L2.67909 13.3247L2.77281 13.1481ZM1.52325 12.4851L1.61699 12.3084L1.61699 12.3084L1.52325 12.4851ZM0.899354 10.5649L0.719674 10.4771L0.719672 10.4771L0.899354 10.5649ZM1.52058 9.2941L1.34091 9.20626L1.3409 9.20626L1.52058 9.2941ZM1.52058 8.86262L1.70027 8.7748L1.70027 8.77479L1.52058 8.86262ZM0.899387 7.59179L0.719704 7.67962L0.719705 7.67963L0.899387 7.59179ZM1.52329 5.67163L1.61702 5.8483L1.61703 5.8483L1.52329 5.67163ZM2.77284 5.00863L2.86658 5.1853L2.8666 5.18528L2.77284 5.00863ZM3.02642 4.65956L3.22341 4.69414L3.22342 4.69411L3.02642 4.65956ZM3.2708 3.26631L3.07381 3.23176L3.07381 3.23176L3.2708 3.26631ZM4.90417 2.07958L4.87614 2.2776L4.87616 2.27761L4.90417 2.07958ZM6.30477 2.2777L6.27676 2.47573L6.27689 2.47574L6.30477 2.2777ZM6.71509 2.14435L6.85415 2.2881L6.85416 2.28809L6.71509 2.14435ZM7.73178 1.16074L7.87085 1.30449L7.87085 1.30448L7.73178 1.16074ZM9.75075 1.16074L9.61169 1.30449L9.61169 1.30449L9.75075 1.16074ZM10.7674 2.14425L10.6283 2.288L10.6283 2.288L10.7674 2.14425ZM11.1777 2.2776L11.2057 2.47564L11.2057 2.47563L11.1777 2.2776ZM12.5783 2.07948L12.6063 2.27751L12.6063 2.27751L12.5783 2.07948ZM14.2117 3.26621L14.4087 3.23166L14.4087 3.23166L14.2117 3.26621ZM14.4561 4.65953L14.2591 4.69408L14.2591 4.69411L14.4561 4.65953ZM14.7097 5.00856L14.8034 4.83189L14.8034 4.83188L14.7097 5.00856ZM15.9592 5.67156L15.8655 5.84823L15.8655 5.84823L15.9592 5.67156ZM16.5831 7.5917L16.7628 7.67953L16.7628 7.67953L16.5831 7.5917ZM15.509 11.6364L15.4152 11.4597L15.4152 11.4597L15.509 11.6364ZM14.2594 12.2994L14.1657 12.1227L14.1657 12.1227L14.2594 12.2994ZM15.72 10.9867L15.8997 10.8988L15.8997 10.8988L15.72 10.9867ZM15.0988 9.71584L14.9191 9.80367L14.9191 9.80367L15.0988 9.71584ZM15.0988 8.44065L14.9191 8.35282L14.9191 8.35282L15.0988 8.44065ZM15.72 7.16982L15.8997 7.25766L15.8997 7.25765L15.72 7.16982ZM15.5089 6.52019L15.4152 6.69686L15.4152 6.69687L15.5089 6.52019ZM14.2594 5.85719L14.3531 5.68052L14.3531 5.68051L14.2594 5.85719ZM13.5098 4.82554L13.3128 4.86009L13.3128 4.8601L13.5098 4.82554ZM13.2654 3.43222L13.0684 3.46677V3.46678L13.2654 3.43222ZM12.7128 3.03071L12.7408 3.22874L12.7408 3.22874L12.7128 3.03071ZM11.3122 3.22883L11.2842 3.03081L11.2842 3.03081L11.3122 3.22883ZM10.0994 2.83477L9.96034 2.97852V2.97852L10.0994 2.83477ZM9.08274 1.85127L9.2218 1.70752L9.22177 1.7075L9.08274 1.85127ZM8.39966 1.85127L8.53872 1.99502L8.53872 1.99501L8.39966 1.85127ZM7.38298 2.83477L7.52203 2.97853L7.52203 2.97852L7.38298 2.83477ZM6.17015 3.22883L6.19818 3.03081L6.19816 3.03081L6.17015 3.22883ZM4.76955 3.03071L4.79756 2.83269L4.79753 2.83268L4.76955 3.03071ZM4.21693 3.43222L4.01994 3.39765L4.01994 3.39767L4.21693 3.43222ZM3.97255 4.8255L3.77556 4.79095L3.77556 4.79095L3.97255 4.8255ZM3.22302 5.85719L3.31676 6.03386L3.31677 6.03385L3.22302 5.85719ZM1.97346 6.52019L2.0672 6.69687L2.0672 6.69686L1.97346 6.52019ZM1.76236 7.16982L1.58268 7.25765L1.58268 7.25766L1.76236 7.16982ZM2.38359 8.44068L2.56328 8.35286L2.56327 8.35285L2.38359 8.44068ZM2.38359 9.71587L2.56327 9.80371L2.56328 9.8037L2.38359 9.71587ZM1.76236 10.9867L1.58268 10.8989L1.58268 10.8989L1.76236 10.9867ZM1.97346 11.6364L2.0672 11.4597L2.0672 11.4597L1.97346 11.6364ZM3.22302 12.2994L3.12927 12.476L3.12929 12.476L3.22302 12.2994ZM3.97258 13.331L4.16958 13.2965L4.16958 13.2965L3.97258 13.331ZM4.217 14.7243L4.02 14.7589L4.02001 14.7589L4.217 14.7243ZM4.76962 15.1258L4.79761 15.3239L4.79763 15.3239L4.76962 15.1258ZM6.17022 14.9277L6.19823 15.1257L6.19825 15.1257L6.17022 14.9277ZM7.38304 15.3218L7.5221 15.178L7.5221 15.178L7.38304 15.3218ZM8.3997 16.3053L8.26064 16.449L8.26066 16.4491L8.3997 16.3053ZM9.08277 16.3053L8.94372 16.1615L8.94371 16.1615L9.08277 16.3053ZM10.0995 15.3218L9.96041 15.1781L9.96041 15.1781L10.0995 15.3218ZM11.3123 14.9278L11.2842 15.1258L11.2843 15.1258L11.3123 14.9278ZM12.7129 15.1259L12.6849 15.3239L12.6849 15.3239L12.7129 15.1259ZM13.2655 14.7244L13.0685 14.6898V14.6898L13.2655 14.7244ZM13.5099 13.3311L13.7069 13.3656V13.3656L13.5099 13.3311ZM12.2504 5.56875L12.109 5.71016L12.109 5.71018L12.2504 5.56875ZM11.5711 5.56875L11.4297 5.42733V5.42733L11.5711 5.56875ZM12.2504 6.24809L12.109 6.10665L12.109 6.10667L12.2504 6.24809ZM5.91028 12.5882L5.76886 12.4468L5.76882 12.4468L5.91028 12.5882ZM5.23102 12.5882L5.0896 12.7296L5.0896 12.7296L5.23102 12.5882ZM5.23102 11.9089L5.37244 12.0503H5.37244L5.23102 11.9089ZM7.6203 6.51656L7.8203 6.51657V6.51656H7.6203ZM16.1416 9.20621C16.1017 9.1245 16.1017 9.03205 16.1416 8.95039L15.7822 8.77472C15.6881 8.96724 15.6881 9.18932 15.7822 9.38185L16.1416 9.20621ZM16.7628 10.4771L16.1416 9.2062L15.7822 9.38186L16.4035 10.6527L16.7628 10.4771ZM16.053 12.6617C16.844 12.2421 17.1561 11.2816 16.7628 10.4771L16.4035 10.6527C16.702 11.2634 16.4659 11.9898 15.8655 12.3084L16.053 12.6617ZM14.8034 13.3247L16.053 12.6617L15.8655 12.3084L14.616 12.9714L14.8034 13.3247ZM14.6531 13.5317C14.6688 13.4421 14.7232 13.3673 14.8035 13.3247L14.6159 12.9714C14.4267 13.0719 14.2962 13.2515 14.2591 13.4625L14.6531 13.5317ZM14.4087 14.9249L14.6531 13.5317L14.2591 13.4626L14.0147 14.8558L14.4087 14.9249ZM12.5503 16.2751C13.4372 16.4006 14.254 15.8069 14.4087 14.9249L14.0147 14.8558C13.8973 15.5253 13.2795 15.9743 12.6063 15.8791L12.5503 16.2751ZM11.1497 16.077L12.5503 16.2751L12.6063 15.8791L11.2057 15.681L11.1497 16.077ZM10.9064 16.1561C10.9717 16.093 11.0597 16.0644 11.1499 16.077L11.2055 15.6809C10.9936 15.6512 10.7825 15.7195 10.6284 15.8686L10.9064 16.1561ZM9.88977 17.1396L10.9065 16.1561L10.6283 15.8686L9.61166 16.8521L9.88977 17.1396ZM8.74127 17.6066C9.15489 17.6065 9.56851 17.4504 9.88979 17.1396L9.61164 16.8521C9.36699 17.0888 9.05392 17.2065 8.74123 17.2066L8.74127 17.6066ZM7.59273 17.1396C7.9141 17.4505 8.32749 17.6066 8.74127 17.6066L8.74123 17.2066C8.42851 17.2066 8.11565 17.0889 7.87084 16.8521L7.59273 17.1396ZM6.57607 16.1561L7.59272 17.1396L7.87084 16.8521L6.85418 15.8686L6.57607 16.1561ZM6.33291 16.077C6.4227 16.0643 6.51064 16.0928 6.57609 16.1561L6.85416 15.8686C6.70022 15.7197 6.48899 15.6508 6.2767 15.681L6.33291 16.077ZM4.93221 16.2751L6.33281 16.077L6.27679 15.681L4.87619 15.8791L4.93221 16.2751ZM4.69619 16.2918C4.7741 16.2918 4.85301 16.2863 4.93221 16.2751L4.87619 15.8791C4.81557 15.8877 4.75538 15.8918 4.69619 15.8918V16.2918ZM3.07381 14.925C3.21463 15.7277 3.90402 16.2919 4.69621 16.2918L4.69617 15.8918C4.09646 15.8919 3.57474 15.4655 3.4678 14.8559L3.07381 14.925ZM2.82943 13.5316L3.07381 14.925L3.4678 14.8559L3.22342 13.4625L2.82943 13.5316ZM2.67909 13.3247C2.75937 13.3673 2.81371 13.4421 2.82944 13.5317L3.22341 13.4625C3.18637 13.2515 3.05587 13.0718 2.86652 12.9714L2.67909 13.3247ZM1.42951 12.6617L2.67906 13.3247L2.86655 12.9714L1.61699 12.3084L1.42951 12.6617ZM0.719672 10.4771C0.326418 11.2816 0.638492 12.242 1.42951 12.6617L1.61699 12.3084C1.01656 11.9898 0.780531 11.2634 1.07904 10.6528L0.719672 10.4771ZM1.3409 9.20626L0.719674 10.4771L1.07903 10.6528L1.70027 9.38193L1.3409 9.20626ZM1.3409 8.95044C1.38083 9.03216 1.38082 9.1246 1.34091 9.20626L1.70026 9.38193C1.79438 9.18941 1.79437 8.96733 1.70027 8.7748L1.3409 8.95044ZM0.719705 7.67963L1.3409 8.95045L1.70027 8.77479L1.07907 7.50396L0.719705 7.67963ZM1.42955 5.49495C0.638517 5.91462 0.326454 6.87511 0.719704 7.67962L1.07907 7.50396C0.78056 6.89327 1.0166 6.16685 1.61702 5.8483L1.42955 5.49495ZM2.6791 4.83195L1.42954 5.49496L1.61703 5.8483L2.86658 5.1853L2.6791 4.83195ZM2.82944 4.62498C2.81371 4.71455 2.75937 4.78935 2.67907 4.83197L2.8666 5.18528C3.05587 5.08483 3.18637 4.90516 3.22341 4.69414L2.82944 4.62498ZM3.07381 3.23176L2.82943 4.62501L3.22342 4.69411L3.4678 3.30086L3.07381 3.23176ZM4.93219 1.88155C4.04539 1.75605 3.22853 2.34977 3.07381 3.23176L3.4678 3.30087C3.58524 2.63133 4.20305 2.18235 4.87614 2.2776L4.93219 1.88155ZM6.33278 2.07967L4.93218 1.88155L4.87616 2.27761L6.27676 2.47573L6.33278 2.07967ZM6.57604 2.0006C6.51073 2.06378 6.42286 2.09235 6.33265 2.07965L6.27689 2.47574C6.48896 2.5056 6.70007 2.43715 6.85415 2.2881L6.57604 2.0006ZM7.59272 1.017L6.57603 2.00061L6.85416 2.28809L7.87085 1.30449L7.59272 1.017ZM9.88981 1.017C9.24619 0.394357 8.23631 0.394307 7.59271 1.01701L7.87085 1.30448C8.35936 0.831831 9.12313 0.831846 9.61169 1.30449L9.88981 1.017ZM10.9065 2.00051L9.88981 1.017L9.61169 1.30449L10.6283 2.288L10.9065 2.00051ZM11.1498 2.07956C11.0597 2.09229 10.9718 2.06371 10.9065 2.0005L10.6283 2.288C10.7823 2.43697 10.9935 2.5056 11.2057 2.47564L11.1498 2.07956ZM12.5503 1.88145L11.1497 2.07957L11.2057 2.47563L12.6063 2.27751L12.5503 1.88145ZM14.4087 3.23166C14.254 2.34965 13.4368 1.75602 12.5503 1.88145L12.6063 2.27751C13.2792 2.18231 13.8973 2.63127 14.0147 3.30077L14.4087 3.23166ZM14.6531 4.62497L14.4087 3.23166L14.0147 3.30077L14.2591 4.69408L14.6531 4.62497ZM14.8034 4.83188C14.7231 4.7893 14.6688 4.71449 14.6531 4.62494L14.2591 4.69411C14.2961 4.90509 14.4266 5.08481 14.616 5.18525L14.8034 4.83188ZM16.053 5.49489L14.8034 4.83189L14.616 5.18523L15.8655 5.84823L16.053 5.49489ZM16.7628 7.67953C17.1561 6.87501 16.844 5.91459 16.053 5.49489L15.8655 5.84823C16.4659 6.16681 16.702 6.89318 16.4035 7.50387L16.7628 7.67953ZM16.1416 8.95039L16.7628 7.67953L16.4035 7.50386L15.7822 8.77472L16.1416 8.95039ZM15.4152 11.4597L14.1657 12.1227L14.3532 12.4761L15.6027 11.8131L15.4152 11.4597ZM15.5404 11.0745C15.61 11.2171 15.5553 11.3854 15.4152 11.4597L15.6027 11.8131C15.9334 11.6376 16.0641 11.2352 15.8997 10.8988L15.5404 11.0745ZM14.9191 9.80367L15.5404 11.0745L15.8997 10.8988L15.2785 9.628L14.9191 9.80367ZM14.9191 8.35282C14.694 8.81343 14.694 9.34306 14.9191 9.80367L15.2785 9.62801C15.1075 9.27824 15.1075 8.87825 15.2785 8.52848L14.9191 8.35282ZM15.5404 7.08199L14.9191 8.35282L15.2785 8.52849L15.8997 7.25766L15.5404 7.08199ZM15.4152 6.69687C15.5553 6.7712 15.61 6.93951 15.5404 7.082L15.8997 7.25765C16.0641 6.92133 15.9334 6.51897 15.6027 6.34352L15.4152 6.69687ZM14.1656 6.03386L15.4152 6.69686L15.6027 6.34352L14.3531 5.68052L14.1656 6.03386ZM13.3128 4.8601C13.4014 5.36511 13.7127 5.79359 14.1657 6.03387L14.3531 5.68051C14.0092 5.49807 13.7741 5.17448 13.7068 4.79097L13.3128 4.8601ZM13.0684 3.46678L13.3128 4.86009L13.7068 4.79098L13.4624 3.39767L13.0684 3.46678ZM12.7408 3.22874C12.8978 3.20654 13.0411 3.31059 13.0684 3.46677L13.4624 3.39767C13.3978 3.02892 13.0553 2.78026 12.6848 2.83269L12.7408 3.22874ZM11.3402 3.42686L12.7408 3.22874L12.6848 2.83269L11.2842 3.03081L11.3402 3.42686ZM9.96034 2.97852C10.3288 3.33501 10.8326 3.49872 11.3402 3.42686L11.2842 3.03081C10.8987 3.08537 10.5183 2.96175 10.2385 2.69103L9.96034 2.97852ZM8.94368 1.99501L9.96034 2.97852L10.2385 2.69103L9.2218 1.70752L8.94368 1.99501ZM8.53872 1.99501C8.65266 1.88479 8.82967 1.88476 8.9437 1.99504L9.22177 1.7075C8.95271 1.4473 8.52964 1.44727 8.26061 1.70752L8.53872 1.99501ZM7.52203 2.97852L8.53872 1.99502L8.26061 1.70752L7.24392 2.69103L7.52203 2.97852ZM6.14212 3.42686C6.64973 3.49872 7.15352 3.33498 7.52203 2.97853L7.24392 2.69102C6.96407 2.96173 6.58357 3.08537 6.19818 3.03081L6.14212 3.42686ZM4.74154 3.22874L6.14214 3.42686L6.19816 3.03081L4.79756 2.83269L4.74154 3.22874ZM4.41392 3.4668C4.44134 3.31056 4.58444 3.20655 4.74158 3.22875L4.79753 2.83268C4.4268 2.78031 4.08465 3.02895 4.01994 3.39765L4.41392 3.4668ZM4.16954 4.86006L4.41392 3.46678L4.01994 3.39767L3.77556 4.79095L4.16954 4.86006ZM3.31677 6.03385C3.76962 5.79352 4.08097 5.36509 4.16954 4.86005L3.77556 4.79095C3.7083 5.17443 3.47318 5.49801 3.12926 5.68053L3.31677 6.03385ZM2.0672 6.69686L3.31676 6.03386L3.12927 5.68052L1.87972 6.34352L2.0672 6.69686ZM1.94205 7.082C1.8724 6.93951 1.92709 6.7712 2.0672 6.69687L1.87973 6.34352C1.54903 6.51897 1.41829 6.92133 1.58268 7.25765L1.94205 7.082ZM2.56327 8.35285L1.94204 7.08199L1.58268 7.25766L2.20391 8.52852L2.56327 8.35285ZM2.56328 9.8037C2.78842 9.34306 2.78842 8.81349 2.56328 8.35286L2.20391 8.52851C2.37488 8.87831 2.37488 9.27825 2.20391 9.62805L2.56328 9.8037ZM1.94204 11.0746L2.56327 9.80371L2.20391 9.62804L1.58268 10.8989L1.94204 11.0746ZM2.0672 11.4597C1.92709 11.3854 1.8724 11.217 1.94205 11.0746L1.58268 10.8989C1.41829 11.2352 1.54903 11.6376 1.87973 11.813L2.0672 11.4597ZM3.31676 12.1227L2.0672 11.4597L1.87972 11.813L3.12927 12.476L3.31676 12.1227ZM4.16958 13.2965C4.08097 12.7914 3.76967 12.363 3.31674 12.1227L3.12929 12.476C3.4732 12.6585 3.70831 12.9821 3.77559 13.3656L4.16958 13.2965ZM4.41399 14.6898L4.16958 13.2965L3.77559 13.3656L4.02 14.7589L4.41399 14.6898ZM4.74162 14.9278C4.58469 14.95 4.4414 14.846 4.41399 14.6898L4.02001 14.7589C4.08472 15.1276 4.42714 15.3762 4.79761 15.3239L4.74162 14.9278ZM6.1422 14.7297L4.74161 14.9278L4.79763 15.3239L6.19823 15.1257L6.1422 14.7297ZM6.37696 14.7131C6.29907 14.7131 6.22063 14.7186 6.14218 14.7297L6.19825 15.1257C6.25812 15.1173 6.31782 15.1131 6.37696 15.1131V14.7131ZM7.5221 15.178C7.21087 14.877 6.80285 14.7131 6.37696 14.7131V15.1131C6.69891 15.1131 7.00725 15.2365 7.24399 15.4655L7.5221 15.178ZM8.53876 16.1615L7.5221 15.178L7.24398 15.4655L8.26064 16.449L8.53876 16.1615ZM8.94371 16.1615C8.82978 16.2718 8.65276 16.2718 8.53873 16.1615L8.26066 16.4491C8.52973 16.7093 8.9528 16.7093 9.22183 16.449L8.94371 16.1615ZM9.96041 15.1781L8.94372 16.1615L9.22182 16.449L10.2385 15.4656L9.96041 15.1781ZM11.3403 14.7297C10.8325 14.6578 10.3289 14.8216 9.96041 15.1781L10.2385 15.4656C10.5184 15.1948 10.8987 15.0712 11.2842 15.1258L11.3403 14.7297ZM12.7409 14.9278L11.3403 14.7297L11.2843 15.1258L12.6849 15.3239L12.7409 14.9278ZM13.0685 14.6898C13.0411 14.846 12.898 14.95 12.7408 14.9278L12.6849 15.3239C13.0556 15.3762 13.3978 15.1277 13.4625 14.7589L13.0685 14.6898ZM13.3129 13.2965L13.0685 14.6898L13.4625 14.7589L13.7069 13.3656L13.3129 13.2965ZM14.1657 12.1227C13.7128 12.3631 13.4015 12.7915 13.3129 13.2965L13.7069 13.3656C13.7741 12.9822 14.0093 12.6586 14.3532 12.4761L14.1657 12.1227ZM12.3919 5.42735C12.1262 5.16164 11.6954 5.16166 11.4297 5.42733L11.7126 5.71018C11.822 5.60069 11.9996 5.60071 12.109 5.71016L12.3919 5.42735ZM12.3918 6.38952C12.6576 6.1238 12.6576 5.69305 12.3919 5.42733L12.109 5.71018C12.2185 5.81968 12.2185 5.99715 12.109 6.10665L12.3918 6.38952ZM6.05171 12.7296L12.3918 6.38951L12.109 6.10667L5.76886 12.4468L6.05171 12.7296ZM5.57065 12.9289C5.7444 12.9289 5.91894 12.8625 6.05175 12.7296L5.76882 12.4468C5.71411 12.5016 5.64272 12.5289 5.57065 12.5289V12.9289ZM5.0896 12.7296C5.22239 12.8624 5.39685 12.9289 5.57065 12.9289V12.5289C5.49864 12.5289 5.42723 12.5016 5.37244 12.4468L5.0896 12.7296ZM5.0896 11.7675C4.82391 12.0332 4.82391 12.4639 5.0896 12.7296L5.37244 12.4468C5.26296 12.3373 5.26296 12.1598 5.37244 12.0503L5.0896 11.7675ZM11.4297 5.42733L5.08959 11.7675L5.37244 12.0503L11.7126 5.71018L11.4297 5.42733ZM5.25847 6.51659C5.25847 5.6559 5.95903 4.95534 6.81972 4.95534V4.55534C5.73812 4.55534 4.85847 5.43499 4.85847 6.51659H5.25847ZM6.81972 8.07784C5.95903 8.07784 5.25847 7.37728 5.25847 6.51659H4.85847C4.85847 7.59819 5.73812 8.47784 6.81972 8.47784V8.07784ZM8.38097 6.51659C8.38097 7.37728 7.68041 8.07784 6.81972 8.07784V8.47784C7.90132 8.47784 8.78097 7.59819 8.78097 6.51659H8.38097ZM6.81972 4.95534C7.68041 4.95534 8.38097 5.6559 8.38097 6.51659H8.78097C8.78097 5.43499 7.90132 4.55534 6.81972 4.55534V4.95534ZM5.81917 6.51656C5.81917 7.06847 6.26783 7.51713 6.81972 7.51713V7.11714C6.48876 7.11714 6.21917 6.84756 6.21917 6.51656H5.81917ZM6.81972 5.51601C6.26784 5.51601 5.81917 5.96467 5.81917 6.51656H6.21917C6.21917 6.18559 6.48875 5.91601 6.81972 5.91601V5.51601ZM7.8203 6.51656C7.8203 5.96466 7.37159 5.51601 6.81972 5.51601V5.91601C7.1507 5.91601 7.4203 6.1856 7.4203 6.51656H7.8203ZM6.81972 7.51713C7.37161 7.51713 7.82026 7.06847 7.8203 6.51657L7.4203 6.51654C7.42027 6.84756 7.15068 7.11714 6.81972 7.11714V7.51713ZM10.6626 9.67891C9.58095 9.67891 8.70131 10.5586 8.70131 11.6402H9.10131C9.10131 10.7795 9.80187 10.0789 10.6626 10.0789V9.67891ZM12.6238 11.6402C12.6238 10.5586 11.7442 9.67891 10.6626 9.67891V10.0789C11.5232 10.0789 12.2238 10.7795 12.2238 11.6402H12.6238ZM10.6626 13.6014C11.7442 13.6014 12.6238 12.7218 12.6238 11.6402H12.2238C12.2238 12.5008 11.5232 13.2014 10.6626 13.2014V13.6014ZM8.70131 11.6402C8.70131 12.7218 9.58095 13.6014 10.6626 13.6014V13.2014C9.80187 13.2014 9.10131 12.5008 9.10131 11.6402H8.70131ZM10.6626 12.2407C10.3316 12.2407 10.062 11.9711 10.062 11.6402H9.66197C9.66197 12.192 10.1107 12.6407 10.6626 12.6407V12.2407ZM11.2631 11.6402C11.2631 11.9711 10.9935 12.2407 10.6626 12.2407V12.6407C11.2144 12.6407 11.6631 12.192 11.6631 11.6402H11.2631ZM10.6626 11.0396C10.9935 11.0396 11.2631 11.3092 11.2631 11.6402H11.6631C11.6631 11.0883 11.2144 10.6396 10.6626 10.6396V11.0396ZM10.062 11.6402C10.062 11.3092 10.3315 11.0396 10.6626 11.0396V10.6396C10.1106 10.6396 9.66197 11.0883 9.66197 11.6402H10.062Z" fill="#37474F" mask="url(#path-1-outside-1)"/>
</svg>
