<svg width="23" height="16" viewBox="0 0 23 16" fill="none" xmlns="http://www.w3.org/2000/svg">
<path fill-rule="evenodd" clip-rule="evenodd" d="M0.927734 7.50781C2.65773 3.11781 6.92773 0.0078125 11.9277 0.0078125C16.9277 0.0078125 21.1977 3.11781 22.9277 7.50781C21.1977 11.8978 16.9277 15.0078 11.9277 15.0078C6.92773 15.0078 2.65773 11.8978 0.927734 7.50781ZM11.9277 2.00781C15.7177 2.00781 19.0977 4.13781 20.7477 7.50781C19.0977 10.8778 15.7177 13.0078 11.9277 13.0078C8.13773 13.0078 4.75773 10.8778 3.10773 7.50781C4.75773 4.13781 8.13773 2.00781 11.9277 2.00781ZM7.42773 7.50781C7.42773 5.02781 9.44773 3.00781 11.9277 3.00781C14.4077 3.00781 16.4277 5.02781 16.4277 7.50781C16.4277 9.98781 14.4077 12.0078 11.9277 12.0078C9.44773 12.0078 7.42773 9.98781 7.42773 7.50781ZM14.4277 7.50781C14.4277 6.12781 13.3077 5.00781 11.9277 5.00781C10.5477 5.00781 9.42773 6.12781 9.42773 7.50781C9.42773 8.88781 10.5477 10.0078 11.9277 10.0078C13.3077 10.0078 14.4277 8.88781 14.4277 7.50781Z" fill="#37474F"/>
</svg>
